<svg width="24" height="24" viewBox="0 0 24 24" fill="none" xmlns="http://www.w3.org/2000/svg">
<path d="M21.4218 10.9204C21.6008 10.8414 21.7527 10.7117 21.8587 10.5472C21.9647 10.3827 22.0201 10.1908 22.0181 9.99514C22.0161 9.79949 21.9567 9.60873 21.8473 9.44649C21.7379 9.28425 21.5834 9.15766 21.4028 9.0824L12.8318 5.1784C12.5712 5.05955 12.2881 4.99805 12.0018 4.99805C11.7154 4.99805 11.4323 5.05955 11.1718 5.1784L2.60175 9.0784C2.42372 9.15638 2.27227 9.28454 2.16592 9.44722C2.05957 9.6099 2.00293 9.80005 2.00293 9.9944C2.00293 10.1888 2.05957 10.3789 2.16592 10.5416C2.27227 10.7043 2.42372 10.8324 2.60175 10.9104L11.1718 14.8184C11.4323 14.9373 11.7154 14.9988 12.0018 14.9988C12.2881 14.9988 12.5712 14.9373 12.8318 14.8184L21.4218 10.9204Z" stroke="#444444" stroke-width="2" stroke-linecap="round" stroke-linejoin="round"/>
<path d="M22.001 9.99805V15.998" stroke="#444444" stroke-width="2" stroke-linecap="round" stroke-linejoin="round"/>
<path d="M6 12.498V15.998C6 16.7937 6.63214 17.5568 7.75736 18.1194C8.88258 18.682 10.4087 18.998 12 18.998C13.5913 18.998 15.1174 18.682 16.2426 18.1194C17.3679 17.5568 18 16.7937 18 15.998V12.498" stroke="#444444" stroke-width="2" stroke-linecap="round" stroke-linejoin="round"/>
</svg>
